<svg xmlns="http://www.w3.org/2000/svg" xmlns:xlink="http://www.w3.org/1999/xlink" width="500" zoomAndPan="magnify" viewBox="0 0 375 374.999991" height="500" preserveAspectRatio="xMidYMid meet" version="1.0"><defs><clipPath id="0ca14ffe87"><path d="M 117 48 L 235 48 L 235 201 L 117 201 Z M 117 48 " clip-rule="nonzero"/></clipPath><clipPath id="301dccf2da"><path d="M 99.746094 183.003906 L 234.617188 48.128906 L 252.179688 65.691406 L 117.308594 200.566406 Z M 99.746094 183.003906 " clip-rule="nonzero"/></clipPath><clipPath id="9cdcbdef98"><path d="M 119.632812 163.117188 L 234.589844 48.160156 L 232.265625 85.609375 L 117.308594 200.566406 Z M 119.632812 163.117188 " clip-rule="nonzero"/></clipPath><clipPath id="433ab032fd"><path d="M 117 121 L 235 121 L 235 275 L 117 275 Z M 117 121 " clip-rule="nonzero"/></clipPath><clipPath id="2f49b07fbb"><path d="M 99.746094 256.800781 L 234.617188 121.925781 L 252.179688 139.488281 L 117.308594 274.363281 Z M 99.746094 256.800781 " clip-rule="nonzero"/></clipPath><clipPath id="c206f826f3"><path d="M 119.632812 236.914062 L 234.589844 121.957031 L 232.265625 159.40625 L 117.308594 274.363281 Z M 119.632812 236.914062 " clip-rule="nonzero"/></clipPath><clipPath id="c5e78f2d8c"><path d="M 154 48 L 272 48 L 272 201 L 154 201 Z M 154 48 " clip-rule="nonzero"/></clipPath><clipPath id="dc77507a44"><path d="M 136.625 183.003906 L 271.5 48.128906 L 289.0625 65.691406 L 154.1875 200.566406 Z M 136.625 183.003906 " clip-rule="nonzero"/></clipPath><clipPath id="8a20a29f82"><path d="M 156.511719 163.117188 L 271.46875 48.160156 L 269.144531 85.609375 L 154.1875 200.566406 Z M 156.511719 163.117188 " clip-rule="nonzero"/></clipPath><clipPath id="bec1c882d8"><path d="M 154 121 L 272 121 L 272 275 L 154 275 Z M 154 121 " clip-rule="nonzero"/></clipPath><clipPath id="a82922d551"><path d="M 136.625 256.800781 L 271.5 121.925781 L 289.0625 139.488281 L 154.1875 274.363281 Z M 136.625 256.800781 " clip-rule="nonzero"/></clipPath><clipPath id="a4431fa008"><path d="M 156.511719 236.914062 L 271.46875 121.957031 L 269.144531 159.40625 L 154.1875 274.363281 Z M 156.511719 236.914062 " clip-rule="nonzero"/></clipPath></defs><g clip-path="url(#0ca14ffe87)"><g clip-path="url(#301dccf2da)"><g clip-path="url(#9cdcbdef98)"><path fill="#222222" d="M 99.746094 183.003906 L 234.617188 48.128906 L 252.179688 65.691406 L 117.308594 200.566406 Z M 99.746094 183.003906 " fill-opacity="1" fill-rule="nonzero"/></g></g></g><g clip-path="url(#433ab032fd)"><g clip-path="url(#2f49b07fbb)"><g clip-path="url(#c206f826f3)"><path fill="#222222" d="M 99.746094 256.800781 L 234.617188 121.925781 L 252.179688 139.488281 L 117.308594 274.363281 Z M 99.746094 256.800781 " fill-opacity="1" fill-rule="nonzero"/></g></g></g><g clip-path="url(#c5e78f2d8c)"><g clip-path="url(#dc77507a44)"><g clip-path="url(#8a20a29f82)"><path fill="#222222" d="M 136.625 183.003906 L 271.5 48.128906 L 289.0625 65.691406 L 154.1875 200.566406 Z M 136.625 183.003906 " fill-opacity="1" fill-rule="nonzero"/></g></g></g><g clip-path="url(#bec1c882d8)"><g clip-path="url(#a82922d551)"><g clip-path="url(#a4431fa008)"><path fill="#222222" d="M 136.625 256.800781 L 271.5 121.925781 L 289.0625 139.488281 L 154.1875 274.363281 Z M 136.625 256.800781 " fill-opacity="1" fill-rule="nonzero"/></g></g></g></svg>